<?xml version="1.0" standalone="no"?><!DOCTYPE svg PUBLIC "-//W3C//DTD SVG 1.1//EN" "http://www.w3.org/Graphics/SVG/1.1/DTD/svg11.dtd"><svg t="1637896694532" class="icon" viewBox="0 0 1024 1024" version="1.1" xmlns="http://www.w3.org/2000/svg" p-id="25943" xmlns:xlink="http://www.w3.org/1999/xlink" width="200" height="200"><defs><style type="text/css"></style></defs><path d="M510.6688 939.5712c-25.6512 0-51.3536-6.6048-74.24-19.8144l-224.0512-129.3312c-45.7728-26.4192-74.24-75.7248-74.24-128.5632V340.1216c0-58.7264 34.7136-112.0256 88.3712-135.7824L450.56 105.216c38.1952-16.896 81.9712-16.896 120.1664 0l224.0512 99.1744a148.52608 148.52608 0 0 1 88.3712 135.7824v34.4064c0 16.9472-13.7728 30.72-30.72 30.72s-30.72-13.7728-30.72-30.72v-34.4064c0-34.4064-20.3264-65.6384-51.8144-79.5648l-224.0512-99.1744a87.41888 87.41888 0 0 0-70.4512 0L251.392 260.5056a87.04512 87.04512 0 0 0-51.8144 79.5648v321.7408c0 30.976 16.6912 59.8528 43.52 75.3664l224.0512 129.3312a87.20896 87.20896 0 0 0 87.04 0L778.24 737.2288c26.8288-15.5136 43.52-44.3904 43.52-75.3664v-127.7952c0-16.9472 13.7728-30.72 30.72-30.72s30.72 13.7728 30.72 30.72v127.7952c0 52.8896-28.4672 102.144-74.24 128.5632l-224.0512 129.3312a148.70528 148.70528 0 0 1-74.24 19.8144z" fill="#363F5B" p-id="25944"></path><path d="M610.2016 570.624h-68.864v-52.0704c48.3328-13.4656 83.8656-57.856 83.8656-110.3872 0-63.1808-51.4048-114.5856-114.5856-114.5856S396.032 344.9856 396.032 408.1664c0 52.5312 35.584 96.9216 83.8656 110.3872v179.8144c0 16.9472 13.7728 30.72 30.72 30.72s30.72-13.7728 30.72-30.72v-66.304h68.864c16.9472 0 30.72-13.7728 30.72-30.72s-13.7216-30.72-30.72-30.72zM457.472 408.1664c0-29.3376 23.8592-53.1456 53.1456-53.1456s53.1456 23.8592 53.1456 53.1456-23.8592 53.1456-53.1456 53.1456-53.1456-23.808-53.1456-53.1456z" fill="#B11EFF" p-id="25945"></path></svg>